<svg xmlns="http://www.w3.org/2000/svg" width="410" height="404" viewBox="0 0 410 404" fill="none">
  <g clip-path="url(#clip0)">
    <path d="M399.641 59.5246L215.643 388.945C211.844 395.752 202.051 395.771 198.227 388.978L10.5817 59.5563C6.38087 52.0927 12.6802 43.1118 21.304 44.7586L205.223 79.412C206.398 79.6345 207.601 79.6302 208.774 79.3993L388.372 44.8058C396.962 43.1705 403.302 52.0869 399.155 59.5442L399.641 59.5246Z" fill="url(#paint0_linear)"/>
    <path d="M292.965 1.57695L156.801 28.2552C155.173 28.5787 153.756 29.5337 152.933 30.8926L68.6893 171.409C66.1861 175.55 69.4382 180.864 74.2319 180.191L119.396 173.764C124.31 173.074 128.244 177.711 126.622 182.438L102.394 254.992C100.694 259.944 105.614 264.297 110.371 262.197L138.75 249.675C143.461 247.598 148.74 250.873 148.911 255.966L150.396 301.965C150.576 307.505 157.783 309.648 160.539 304.802L162.221 301.865L290.975 63.8281C293.954 58.342 289.22 52.0326 283.142 53.1748L236.988 61.6398C231.024 62.7621 226.165 56.6975 229.01 51.3055L299.955 6.2415C304.708 3.04825 301.778 -2.64381 296.06 -1.49806L292.965 1.57695Z" fill="url(#paint1_linear)"/>
  </g>
  <defs>
    <linearGradient id="paint0_linear" x1="6.00017" y1="32.9999" x2="235" y2="344" gradientUnits="userSpaceOnUse">
      <stop stop-color="#41D1FF"/>
      <stop offset="1" stop-color="#BD34FE"/>
    </linearGradient>
    <linearGradient id="paint1_linear" x1="194.651" y1="8.81818" x2="236.076" y2="292.989" gradientUnits="userSpaceOnUse">
      <stop stop-color="#FFEA83"/>
      <stop offset="0.0833333" stop-color="#FFDD35"/>
      <stop offset="1" stop-color="#FFA800"/>
    </linearGradient>
    <clipPath id="clip0">
      <rect width="410" height="404" fill="white"/>
    </clipPath>
  </defs>
</svg>
